<svg id="visual" viewBox="0 0 900 600" width="900" height="600" xmlns="http://www.w3.org/2000/svg" xmlns:xlink="http://www.w3.org/1999/xlink" version="1.1"><g stroke-width="1" stroke-linejoin="bevel"><path d="M434.8 330.8L390.8 340.3L422 356.8Z" fill="#5ab9f3" stroke="#5ab9f3"></path><path d="M434.8 330.8L404.8 301.7L390.8 340.3Z" fill="#2b72b5" stroke="#2b72b5"></path><path d="M390.8 340.3L379.5 387.4L422 356.8Z" fill="#2b72b5" stroke="#2b72b5"></path><path d="M379.5 387.4L410 398.4L422 356.8Z" fill="#459cdb" stroke="#459cdb"></path><path d="M504.3 342.8L486 285.3L434.8 330.8Z" fill="#143d81" stroke="#143d81"></path><path d="M312.3 319.3L336.5 350.3L390.8 340.3Z" fill="#4fabe7" stroke="#4fabe7"></path><path d="M390.8 340.3L339.5 366.8L379.5 387.4Z" fill="#3c8ecf" stroke="#3c8ecf"></path><path d="M336.5 350.3L339.5 366.8L390.8 340.3Z" fill="#3380c2" stroke="#3380c2"></path><path d="M504.3 342.8L434.8 330.8L422 356.8Z" fill="#2b72b5" stroke="#2b72b5"></path><path d="M434.8 330.8L486 285.3L404.8 301.7Z" fill="#143d81" stroke="#143d81"></path><path d="M475.3 420.4L504.3 342.8L422 356.8Z" fill="#2465a8" stroke="#2465a8"></path><path d="M314.5 233.2L312.3 319.3L404.8 301.7Z" fill="#65c8ff" stroke="#65c8ff"></path><path d="M404.8 301.7L312.3 319.3L390.8 340.3Z" fill="#5ab9f3" stroke="#5ab9f3"></path><path d="M336.5 350.3L312.3 319.3L339.5 366.8Z" fill="#65c8ff" stroke="#65c8ff"></path><path d="M410 398.4L475.3 420.4L422 356.8Z" fill="#3c8ecf" stroke="#3c8ecf"></path><path d="M379.5 387.4L424.8 447.4L410 398.4Z" fill="#194a8e" stroke="#194a8e"></path><path d="M410 398.4L424.8 447.4L475.3 420.4Z" fill="#3380c2" stroke="#3380c2"></path><path d="M387.8 480.9L424.8 447.4L379.5 387.4Z" fill="#3380c2" stroke="#3380c2"></path><path d="M550.3 324.3L540.3 310.7L504.3 342.8Z" fill="#459cdb" stroke="#459cdb"></path><path d="M504.3 342.8L540.3 310.7L486 285.3Z" fill="#143d81" stroke="#143d81"></path><path d="M577.5 256.7L494 226.7L486 285.3Z" fill="#143d81" stroke="#143d81"></path><path d="M486 285.3L403.8 198.6L404.8 301.7Z" fill="#194a8e" stroke="#194a8e"></path><path d="M580.8 390.8L550.3 324.3L504.3 342.8Z" fill="#194a8e" stroke="#194a8e"></path><path d="M533.5 208.2L496 204.2L494 226.7Z" fill="#459cdb" stroke="#459cdb"></path><path d="M494 226.7L403.8 198.6L486 285.3Z" fill="#5ab9f3" stroke="#5ab9f3"></path><path d="M403.8 198.6L314.5 233.2L404.8 301.7Z" fill="#194a8e" stroke="#194a8e"></path><path d="M424.8 447.4L455 475.9L475.3 420.4Z" fill="#5ab9f3" stroke="#5ab9f3"></path><path d="M580.8 390.8L559.5 322.3L550.3 324.3Z" fill="#2465a8" stroke="#2465a8"></path><path d="M286.3 449.4L379.5 387.4L339.5 366.8Z" fill="#1e579b" stroke="#1e579b"></path><path d="M288.3 454.9L387.8 480.9L379.5 387.4Z" fill="#143d81" stroke="#143d81"></path><path d="M424.8 447.4L387.8 480.9L455 475.9Z" fill="#194a8e" stroke="#194a8e"></path><path d="M580.8 390.8L504.3 342.8L475.3 420.4Z" fill="#194a8e" stroke="#194a8e"></path><path d="M550.3 324.3L559.5 322.3L540.3 310.7Z" fill="#1e579b" stroke="#1e579b"></path><path d="M314.5 233.2L280.3 257.7L312.3 319.3Z" fill="#459cdb" stroke="#459cdb"></path><path d="M271 436.4L286.3 449.4L339.5 366.8Z" fill="#459cdb" stroke="#459cdb"></path><path d="M533.5 208.2L494 226.7L577.5 256.7Z" fill="#459cdb" stroke="#459cdb"></path><path d="M494 226.7L496 204.2L403.8 198.6Z" fill="#3c8ecf" stroke="#3c8ecf"></path><path d="M261.3 201.2L290.5 228.7L313.3 137.6Z" fill="#2b72b5" stroke="#2b72b5"></path><path d="M314.5 233.2L290.5 228.7L280.3 257.7Z" fill="#1e579b" stroke="#1e579b"></path><path d="M442 121.6L379.8 171.2L403.8 198.6Z" fill="#65c8ff" stroke="#65c8ff"></path><path d="M403.8 198.6L379.8 171.2L314.5 233.2Z" fill="#143d81" stroke="#143d81"></path><path d="M271 436.4L339.5 366.8L257.3 429.8Z" fill="#4fabe7" stroke="#4fabe7"></path><path d="M286.3 449.4L288.3 454.9L379.5 387.4Z" fill="#2465a8" stroke="#2465a8"></path><path d="M257.3 429.8L339.5 366.8L312.3 319.3Z" fill="#459cdb" stroke="#459cdb"></path><path d="M286.3 449.4L271 436.4L288.3 454.9Z" fill="#1e579b" stroke="#1e579b"></path><path d="M577.5 256.7L486 285.3L540.3 310.7Z" fill="#3380c2" stroke="#3380c2"></path><path d="M496 204.2L475.3 151.6L403.8 198.6Z" fill="#3c8ecf" stroke="#3c8ecf"></path><path d="M515.3 496.9L580.8 390.8L475.3 420.4Z" fill="#2465a8" stroke="#2465a8"></path><path d="M559.5 322.3L580.8 268.7L540.3 310.7Z" fill="#4fabe7" stroke="#4fabe7"></path><path d="M627.8 370.3L580.8 268.7L559.5 322.3Z" fill="#143d81" stroke="#143d81"></path><path d="M216.8 338.8L257.3 429.8L312.3 319.3Z" fill="#194a8e" stroke="#194a8e"></path><path d="M271 436.4L196.8 466.9L288.3 454.9Z" fill="#65c8ff" stroke="#65c8ff"></path><path d="M580.8 268.7L577.5 256.7L540.3 310.7Z" fill="#2b72b5" stroke="#2b72b5"></path><path d="M466.3 526.5L515.3 496.9L455 475.9Z" fill="#194a8e" stroke="#194a8e"></path><path d="M455 475.9L515.3 496.9L475.3 420.4Z" fill="#2b72b5" stroke="#2b72b5"></path><path d="M535.3 144.1L527.3 180.2L554.5 153.1Z" fill="#5ab9f3" stroke="#5ab9f3"></path><path d="M533.5 208.2L527.3 180.2L496 204.2Z" fill="#65c8ff" stroke="#65c8ff"></path><path d="M527.3 180.2L475.3 151.6L496 204.2Z" fill="#194a8e" stroke="#194a8e"></path><path d="M216.8 263.7L216.8 338.8L280.3 257.7Z" fill="#4fabe7" stroke="#4fabe7"></path><path d="M280.3 257.7L216.8 338.8L312.3 319.3Z" fill="#4fabe7" stroke="#4fabe7"></path><path d="M459 541.5L466.3 526.5L387.8 480.9Z" fill="#459cdb" stroke="#459cdb"></path><path d="M387.8 480.9L466.3 526.5L455 475.9Z" fill="#194a8e" stroke="#194a8e"></path><path d="M627.8 370.3L609.5 373.8L654 419.8Z" fill="#459cdb" stroke="#459cdb"></path><path d="M580.8 390.8L609.5 373.8L559.5 322.3Z" fill="#194a8e" stroke="#194a8e"></path><path d="M615.8 175.6L533.5 208.2L577.5 256.7Z" fill="#3380c2" stroke="#3380c2"></path><path d="M313.3 137.6L290.5 228.7L314.5 233.2Z" fill="#3380c2" stroke="#3380c2"></path><path d="M290.5 228.7L261.3 201.2L280.3 257.7Z" fill="#5ab9f3" stroke="#5ab9f3"></path><path d="M316.3 539.5L332.5 522.9L288.3 454.9Z" fill="#2b72b5" stroke="#2b72b5"></path><path d="M288.3 454.9L332.5 522.9L387.8 480.9Z" fill="#3380c2" stroke="#3380c2"></path><path d="M261.3 201.2L216.8 263.7L280.3 257.7Z" fill="#4fabe7" stroke="#4fabe7"></path><path d="M352.8 543.5L459 541.5L387.8 480.9Z" fill="#5ab9f3" stroke="#5ab9f3"></path><path d="M466.3 526.5L559.5 542.5L515.3 496.9Z" fill="#4fabe7" stroke="#4fabe7"></path><path d="M216.8 263.7L199 323.3L216.8 338.8Z" fill="#65c8ff" stroke="#65c8ff"></path><path d="M216.8 338.8L198.8 414.4L257.3 429.8Z" fill="#3c8ecf" stroke="#3c8ecf"></path><path d="M332.5 522.9L352.8 543.5L387.8 480.9Z" fill="#1e579b" stroke="#1e579b"></path><path d="M481 114.1L442 121.6L475.3 151.6Z" fill="#4fabe7" stroke="#4fabe7"></path><path d="M475.3 151.6L442 121.6L403.8 198.6Z" fill="#3c8ecf" stroke="#3c8ecf"></path><path d="M379.8 171.2L313.3 137.6L314.5 233.2Z" fill="#5ab9f3" stroke="#5ab9f3"></path><path d="M654 419.8L609.5 373.8L580.8 390.8Z" fill="#3380c2" stroke="#3380c2"></path><path d="M609.5 373.8L627.8 370.3L559.5 322.3Z" fill="#1e579b" stroke="#1e579b"></path><path d="M442 121.6L343.8 126.1L379.8 171.2Z" fill="#2b72b5" stroke="#2b72b5"></path><path d="M343.8 126.1L333.5 129.6L379.8 171.2Z" fill="#65c8ff" stroke="#65c8ff"></path><path d="M333.5 129.6L313.3 137.6L379.8 171.2Z" fill="#194a8e" stroke="#194a8e"></path><path d="M584.8 495.5L596.5 463.4L515.3 496.9Z" fill="#3380c2" stroke="#3380c2"></path><path d="M515.3 496.9L596.5 463.4L580.8 390.8Z" fill="#5ab9f3" stroke="#5ab9f3"></path><path d="M286.5 561.5L316.3 539.5L288.3 454.9Z" fill="#3380c2" stroke="#3380c2"></path><path d="M332.5 522.9L316.3 539.5L352.8 543.5Z" fill="#2b72b5" stroke="#2b72b5"></path><path d="M196.8 466.9L271 436.4L257.3 429.8Z" fill="#459cdb" stroke="#459cdb"></path><path d="M554.5 153.1L527.3 180.2L533.5 208.2Z" fill="#459cdb" stroke="#459cdb"></path><path d="M527.3 180.2L535.3 144.1L475.3 151.6Z" fill="#194a8e" stroke="#194a8e"></path><path d="M554.5 153.1L533.5 208.2L569.5 151.6Z" fill="#2465a8" stroke="#2465a8"></path><path d="M180 337.8L198.8 414.4L216.8 338.8Z" fill="#1e579b" stroke="#1e579b"></path><path d="M216.8 263.7L190.8 283.3L199 323.3Z" fill="#65c8ff" stroke="#65c8ff"></path><path d="M199 323.3L180 337.8L216.8 338.8Z" fill="#65c8ff" stroke="#65c8ff"></path><path d="M189 242.2L190.8 283.3L216.8 263.7Z" fill="#1e579b" stroke="#1e579b"></path><path d="M189 242.2L216.8 263.7L211 192.6Z" fill="#194a8e" stroke="#194a8e"></path><path d="M190.8 283.3L183 318.7L199 323.3Z" fill="#65c8ff" stroke="#65c8ff"></path><path d="M569.5 151.6L533.5 208.2L615.8 175.6Z" fill="#3380c2" stroke="#3380c2"></path><path d="M535.3 144.1L481 114.1L475.3 151.6Z" fill="#2b72b5" stroke="#2b72b5"></path><path d="M442 121.6L371.8 68.5L343.8 126.1Z" fill="#2465a8" stroke="#2465a8"></path><path d="M474 56.5L481 114.1L538.3 43.5Z" fill="#1e579b" stroke="#1e579b"></path><path d="M183 318.7L180 337.8L199 323.3Z" fill="#459cdb" stroke="#459cdb"></path><path d="M559.5 542.5L584.8 495.5L515.3 496.9Z" fill="#4fabe7" stroke="#4fabe7"></path><path d="M648.8 233.2L577.5 256.7L580.8 268.7Z" fill="#459cdb" stroke="#459cdb"></path><path d="M554.5 153.1L569.5 151.6L535.3 144.1Z" fill="#4fabe7" stroke="#4fabe7"></path><path d="M211 192.6L216.8 263.7L261.3 201.2Z" fill="#1e579b" stroke="#1e579b"></path><path d="M190.8 283.3L158.5 291.3L183 318.7Z" fill="#2b72b5" stroke="#2b72b5"></path><path d="M183 318.7L134.5 300.7L180 337.8Z" fill="#3c8ecf" stroke="#3c8ecf"></path><path d="M268.3 117.1L211 192.6L261.3 201.2Z" fill="#2b72b5" stroke="#2b72b5"></path><path d="M121.5 434.4L196.8 466.9L198.8 414.4Z" fill="#3c8ecf" stroke="#3c8ecf"></path><path d="M198.8 414.4L196.8 466.9L257.3 429.8Z" fill="#459cdb" stroke="#459cdb"></path><path d="M459 541.5L559.5 542.5L466.3 526.5Z" fill="#2b72b5" stroke="#2b72b5"></path><path d="M469.3 600L559.5 542.5L459 541.5Z" fill="#3c8ecf" stroke="#3c8ecf"></path><path d="M653.8 426.4L654 419.8L580.8 390.8Z" fill="#3c8ecf" stroke="#3c8ecf"></path><path d="M672 297.7L648.8 233.2L580.8 268.7Z" fill="#459cdb" stroke="#459cdb"></path><path d="M653.8 426.4L580.8 390.8L596.5 463.4Z" fill="#143d81" stroke="#143d81"></path><path d="M653.8 426.4L596.5 463.4L688.3 461.4Z" fill="#4fabe7" stroke="#4fabe7"></path><path d="M645.8 523.9L596.5 463.4L584.8 495.5Z" fill="#65c8ff" stroke="#65c8ff"></path><path d="M672 297.7L580.8 268.7L627.8 370.3Z" fill="#5ab9f3" stroke="#5ab9f3"></path><path d="M316.3 539.5L324.5 600L352.8 543.5Z" fill="#194a8e" stroke="#194a8e"></path><path d="M352.8 543.5L429.8 600L459 541.5Z" fill="#2b72b5" stroke="#2b72b5"></path><path d="M196.8 466.9L286.5 561.5L288.3 454.9Z" fill="#65c8ff" stroke="#65c8ff"></path><path d="M155.8 265.2L190.8 283.3L189 242.2Z" fill="#65c8ff" stroke="#65c8ff"></path><path d="M155.8 265.2L158.5 291.3L190.8 283.3Z" fill="#5ab9f3" stroke="#5ab9f3"></path><path d="M97.5 368.8L121.5 434.4L198.8 414.4Z" fill="#459cdb" stroke="#459cdb"></path><path d="M648.8 233.2L615.8 175.6L577.5 256.7Z" fill="#3c8ecf" stroke="#3c8ecf"></path><path d="M761.3 389.8L674 346.3L654 419.8Z" fill="#143d81" stroke="#143d81"></path><path d="M654 419.8L674 346.3L627.8 370.3Z" fill="#194a8e" stroke="#194a8e"></path><path d="M674 346.3L672 297.7L627.8 370.3Z" fill="#2b72b5" stroke="#2b72b5"></path><path d="M290.5 69.1L268.3 117.1L313.3 137.6Z" fill="#1e579b" stroke="#1e579b"></path><path d="M313.3 137.6L268.3 117.1L261.3 201.2Z" fill="#2465a8" stroke="#2465a8"></path><path d="M290.5 69.1L313.3 137.6L333.5 129.6Z" fill="#3380c2" stroke="#3380c2"></path><path d="M290.5 69.1L333.5 129.6L343.8 126.1Z" fill="#2b72b5" stroke="#2b72b5"></path><path d="M324.5 600L429.8 600L352.8 543.5Z" fill="#3c8ecf" stroke="#3c8ecf"></path><path d="M429.8 600L445 600L459 541.5Z" fill="#143d81" stroke="#143d81"></path><path d="M145.8 205.6L155.8 265.2L189 242.2Z" fill="#65c8ff" stroke="#65c8ff"></path><path d="M145.8 205.6L189 242.2L211 192.6Z" fill="#459cdb" stroke="#459cdb"></path><path d="M645.8 523.9L599.5 529.9L648.8 600Z" fill="#3380c2" stroke="#3380c2"></path><path d="M559.5 542.5L599.5 529.9L584.8 495.5Z" fill="#194a8e" stroke="#194a8e"></path><path d="M445 600L469.3 600L459 541.5Z" fill="#5ab9f3" stroke="#5ab9f3"></path><path d="M474 56.5L371.8 68.5L442 121.6Z" fill="#2465a8" stroke="#2465a8"></path><path d="M665.8 151.1L644 188.2L704.3 204.2Z" fill="#2465a8" stroke="#2465a8"></path><path d="M648.8 233.2L644 188.2L615.8 175.6Z" fill="#143d81" stroke="#143d81"></path><path d="M538.3 43.5L535.3 144.1L568.5 44.5Z" fill="#65c8ff" stroke="#65c8ff"></path><path d="M286.5 561.5L324.5 600L316.3 539.5Z" fill="#143d81" stroke="#143d81"></path><path d="M155.8 265.2L134.5 300.7L158.5 291.3Z" fill="#4fabe7" stroke="#4fabe7"></path><path d="M158.5 291.3L134.5 300.7L183 318.7Z" fill="#2465a8" stroke="#2465a8"></path><path d="M538.3 43.5L481 114.1L535.3 144.1Z" fill="#2465a8" stroke="#2465a8"></path><path d="M481 114.1L474 56.5L442 121.6Z" fill="#459cdb" stroke="#459cdb"></path><path d="M629 126.1L569.5 151.6L615.8 175.6Z" fill="#3380c2" stroke="#3380c2"></path><path d="M211 580.5L287.3 600L286.5 561.5Z" fill="#3380c2" stroke="#3380c2"></path><path d="M286.5 561.5L287.3 600L324.5 600Z" fill="#2b72b5" stroke="#2b72b5"></path><path d="M371.8 68.5L290.5 69.1L343.8 126.1Z" fill="#4fabe7" stroke="#4fabe7"></path><path d="M126.8 126.1L145.8 205.6L211 192.6Z" fill="#3380c2" stroke="#3380c2"></path><path d="M299.5 35.5L290.5 69.1L371.8 68.5Z" fill="#143d81" stroke="#143d81"></path><path d="M188 78.1L211 192.6L268.3 117.1Z" fill="#459cdb" stroke="#459cdb"></path><path d="M155.8 265.2L102.5 236.2L134.5 300.7Z" fill="#3380c2" stroke="#3380c2"></path><path d="M591.5 600L599.5 529.9L559.5 542.5Z" fill="#2465a8" stroke="#2465a8"></path><path d="M599.5 529.9L645.8 523.9L584.8 495.5Z" fill="#2b72b5" stroke="#2b72b5"></path><path d="M653.8 426.4L688.3 461.4L654 419.8Z" fill="#5ab9f3" stroke="#5ab9f3"></path><path d="M290.5 69.1L259.3 77.5L268.3 117.1Z" fill="#4fabe7" stroke="#4fabe7"></path><path d="M665.8 151.1L615.8 175.6L644 188.2Z" fill="#1e579b" stroke="#1e579b"></path><path d="M665.8 151.1L629 126.1L615.8 175.6Z" fill="#3380c2" stroke="#3380c2"></path><path d="M645.8 523.9L688.3 461.4L596.5 463.4Z" fill="#65c8ff" stroke="#65c8ff"></path><path d="M742.3 268.7L704.3 204.2L672 297.7Z" fill="#459cdb" stroke="#459cdb"></path><path d="M102.3 482.9L175 527.9L196.8 466.9Z" fill="#194a8e" stroke="#194a8e"></path><path d="M196.8 466.9L175 527.9L286.5 561.5Z" fill="#2465a8" stroke="#2465a8"></path><path d="M97.5 368.8L198.8 414.4L180 337.8Z" fill="#1e579b" stroke="#1e579b"></path><path d="M704.3 204.2L644 188.2L648.8 233.2Z" fill="#4fabe7" stroke="#4fabe7"></path><path d="M704.3 204.2L648.8 233.2L672 297.7Z" fill="#65c8ff" stroke="#65c8ff"></path><path d="M648.8 600L669 517.5L645.8 523.9Z" fill="#194a8e" stroke="#194a8e"></path><path d="M645.8 523.9L669 517.5L688.3 461.4Z" fill="#459cdb" stroke="#459cdb"></path><path d="M175 527.9L211 580.5L286.5 561.5Z" fill="#3c8ecf" stroke="#3c8ecf"></path><path d="M134.5 300.7L97.5 368.8L180 337.8Z" fill="#3380c2" stroke="#3380c2"></path><path d="M91.3 354.3L97.5 368.8L134.5 300.7Z" fill="#1e579b" stroke="#1e579b"></path><path d="M568.5 44.5L535.3 144.1L569.5 151.6Z" fill="#2b72b5" stroke="#2b72b5"></path><path d="M385.8 0L299.5 35.5L371.8 68.5Z" fill="#5ab9f3" stroke="#5ab9f3"></path><path d="M568.5 44.5L569.5 151.6L629 126.1Z" fill="#65c8ff" stroke="#65c8ff"></path><path d="M469.3 600L591.5 600L559.5 542.5Z" fill="#4fabe7" stroke="#4fabe7"></path><path d="M737.3 338.3L672 297.7L674 346.3Z" fill="#65c8ff" stroke="#65c8ff"></path><path d="M387.5 0L371.8 68.5L474 56.5Z" fill="#143d81" stroke="#143d81"></path><path d="M290.5 69.1L299.5 35.5L259.3 77.5Z" fill="#143d81" stroke="#143d81"></path><path d="M59.3 355.8L91.3 354.3L10.3 300.7Z" fill="#194a8e" stroke="#194a8e"></path><path d="M49.3 424.4L102.3 482.9L121.5 434.4Z" fill="#65c8ff" stroke="#65c8ff"></path><path d="M718 494.9L714 453.4L688.3 461.4Z" fill="#5ab9f3" stroke="#5ab9f3"></path><path d="M688.3 461.4L714 453.4L654 419.8Z" fill="#3c8ecf" stroke="#3c8ecf"></path><path d="M761.3 389.8L737.3 338.3L674 346.3Z" fill="#1e579b" stroke="#1e579b"></path><path d="M748.5 214.2L708 198.6L704.3 204.2Z" fill="#1e579b" stroke="#1e579b"></path><path d="M704.3 204.2L708 198.6L665.8 151.1Z" fill="#65c8ff" stroke="#65c8ff"></path><path d="M68.3 230.2L102.5 236.2L62.5 161.6Z" fill="#5ab9f3" stroke="#5ab9f3"></path><path d="M145.8 205.6L102.5 236.2L155.8 265.2Z" fill="#65c8ff" stroke="#65c8ff"></path><path d="M188 78.1L268.3 117.1L259.3 77.5Z" fill="#1e579b" stroke="#1e579b"></path><path d="M582.8 35.5L568.5 44.5L629 126.1Z" fill="#1e579b" stroke="#1e579b"></path><path d="M482 0L387.5 0L474 56.5Z" fill="#3380c2" stroke="#3380c2"></path><path d="M737.3 338.3L742.3 268.7L672 297.7Z" fill="#3c8ecf" stroke="#3c8ecf"></path><path d="M482 0L474 56.5L509.3 0Z" fill="#4fabe7" stroke="#4fabe7"></path><path d="M387.5 0L385.8 0L371.8 68.5Z" fill="#1e579b" stroke="#1e579b"></path><path d="M665.8 151.1L692.3 142.6L629 126.1Z" fill="#65c8ff" stroke="#65c8ff"></path><path d="M708 198.6L692.3 142.6L665.8 151.1Z" fill="#1e579b" stroke="#1e579b"></path><path d="M780.5 202.6L692.3 142.6L708 198.6Z" fill="#65c8ff" stroke="#65c8ff"></path><path d="M190 38.5L259.3 77.5L236.3 0Z" fill="#4fabe7" stroke="#4fabe7"></path><path d="M190 38.5L188 78.1L259.3 77.5Z" fill="#459cdb" stroke="#459cdb"></path><path d="M509.3 0L474 56.5L538.3 43.5Z" fill="#4fabe7" stroke="#4fabe7"></path><path d="M121.5 434.4L102.3 482.9L196.8 466.9Z" fill="#1e579b" stroke="#1e579b"></path><path d="M175 527.9L175 600L211 580.5Z" fill="#459cdb" stroke="#459cdb"></path><path d="M49.3 424.4L121.5 434.4L97.5 368.8Z" fill="#5ab9f3" stroke="#5ab9f3"></path><path d="M669 517.5L718 494.9L688.3 461.4Z" fill="#2b72b5" stroke="#2b72b5"></path><path d="M714 453.4L761.3 389.8L654 419.8Z" fill="#2b72b5" stroke="#2b72b5"></path><path d="M736.3 519.9L718 494.9L669 517.5Z" fill="#1e579b" stroke="#1e579b"></path><path d="M681.3 47.5L582.8 35.5L629 126.1Z" fill="#1e579b" stroke="#1e579b"></path><path d="M568.5 44.5L538.5 0L538.3 43.5Z" fill="#143d81" stroke="#143d81"></path><path d="M538.5 0L509.3 0L538.3 43.5Z" fill="#4fabe7" stroke="#4fabe7"></path><path d="M831.8 406.8L761.3 389.8L821.5 460.4Z" fill="#459cdb" stroke="#459cdb"></path><path d="M737.3 338.3L772.5 270.7L742.3 268.7Z" fill="#143d81" stroke="#143d81"></path><path d="M591.5 600L648.8 600L599.5 529.9Z" fill="#459cdb" stroke="#459cdb"></path><path d="M10.3 300.7L91.3 354.3L134.5 300.7Z" fill="#2465a8" stroke="#2465a8"></path><path d="M91.3 354.3L59.3 355.8L97.5 368.8Z" fill="#143d81" stroke="#143d81"></path><path d="M188 78.1L126.8 126.1L211 192.6Z" fill="#1e579b" stroke="#1e579b"></path><path d="M102.5 236.2L68.3 230.2L134.5 300.7Z" fill="#459cdb" stroke="#459cdb"></path><path d="M157.5 600L175 600L144.8 592.5Z" fill="#5ab9f3" stroke="#5ab9f3"></path><path d="M211 580.5L175 600L287.3 600Z" fill="#143d81" stroke="#143d81"></path><path d="M772.5 270.7L748.5 214.2L742.3 268.7Z" fill="#4fabe7" stroke="#4fabe7"></path><path d="M742.3 268.7L748.5 214.2L704.3 204.2Z" fill="#2b72b5" stroke="#2b72b5"></path><path d="M582.8 35.5L538.5 0L568.5 44.5Z" fill="#2465a8" stroke="#2465a8"></path><path d="M62.5 161.6L102.5 236.2L145.8 205.6Z" fill="#65c8ff" stroke="#65c8ff"></path><path d="M796.8 317.3L772.5 270.7L737.3 338.3Z" fill="#194a8e" stroke="#194a8e"></path><path d="M75.5 553.5L109.5 540.9L102.3 482.9Z" fill="#65c8ff" stroke="#65c8ff"></path><path d="M102.3 482.9L109.5 540.9L175 527.9Z" fill="#5ab9f3" stroke="#5ab9f3"></path><path d="M134.5 87.5L109.5 130.1L126.8 126.1Z" fill="#3380c2" stroke="#3380c2"></path><path d="M126.8 126.1L109.5 130.1L145.8 205.6Z" fill="#1e579b" stroke="#1e579b"></path><path d="M144.8 592.5L175 600L175 527.9Z" fill="#1e579b" stroke="#1e579b"></path><path d="M109.5 540.9L144.8 592.5L175 527.9Z" fill="#5ab9f3" stroke="#5ab9f3"></path><path d="M707 600L736.3 519.9L669 517.5Z" fill="#2465a8" stroke="#2465a8"></path><path d="M718 494.9L821.5 460.4L714 453.4Z" fill="#3c8ecf" stroke="#3c8ecf"></path><path d="M236.3 0L259.3 77.5L299.5 35.5Z" fill="#2465a8" stroke="#2465a8"></path><path d="M188 78.1L134.5 87.5L126.8 126.1Z" fill="#3380c2" stroke="#3380c2"></path><path d="M190 38.5L134.5 87.5L188 78.1Z" fill="#3380c2" stroke="#3380c2"></path><path d="M26.3 580.5L148.8 600L144.8 592.5Z" fill="#2b72b5" stroke="#2b72b5"></path><path d="M144.8 592.5L148.8 600L157.5 600Z" fill="#1e579b" stroke="#1e579b"></path><path d="M0 389.4L49.3 424.4L59.3 355.8Z" fill="#2b72b5" stroke="#2b72b5"></path><path d="M59.3 355.8L49.3 424.4L97.5 368.8Z" fill="#65c8ff" stroke="#65c8ff"></path><path d="M385.8 0L236.3 0L299.5 35.5Z" fill="#2b72b5" stroke="#2b72b5"></path><path d="M813.5 337.8L737.3 338.3L761.3 389.8Z" fill="#2b72b5" stroke="#2b72b5"></path><path d="M813.5 337.8L796.8 317.3L737.3 338.3Z" fill="#194a8e" stroke="#194a8e"></path><path d="M772.5 270.7L780.5 202.6L748.5 214.2Z" fill="#5ab9f3" stroke="#5ab9f3"></path><path d="M236.3 0L226 0L190 38.5Z" fill="#2b72b5" stroke="#2b72b5"></path><path d="M190 38.5L171.8 13.5L134.5 87.5Z" fill="#3c8ecf" stroke="#3c8ecf"></path><path d="M806.8 279.7L780.5 202.6L772.5 270.7Z" fill="#2465a8" stroke="#2465a8"></path><path d="M748.5 214.2L780.5 202.6L708 198.6Z" fill="#1e579b" stroke="#1e579b"></path><path d="M692.3 142.6L681.3 47.5L629 126.1Z" fill="#5ab9f3" stroke="#5ab9f3"></path><path d="M30.3 145.6L62.5 161.6L40.3 83.5Z" fill="#1e579b" stroke="#1e579b"></path><path d="M109.5 130.1L62.5 161.6L145.8 205.6Z" fill="#5ab9f3" stroke="#5ab9f3"></path><path d="M68.3 230.2L10.3 300.7L134.5 300.7Z" fill="#2465a8" stroke="#2465a8"></path><path d="M722 70.5L681.3 47.5L692.3 142.6Z" fill="#3380c2" stroke="#3380c2"></path><path d="M582.8 35.5L644.8 0L538.5 0Z" fill="#3c8ecf" stroke="#3c8ecf"></path><path d="M648.8 600L707 600L669 517.5Z" fill="#143d81" stroke="#143d81"></path><path d="M813.5 337.8L806.5 295.3L796.8 317.3Z" fill="#2465a8" stroke="#2465a8"></path><path d="M796.8 317.3L806.5 295.3L772.5 270.7Z" fill="#65c8ff" stroke="#65c8ff"></path><path d="M806.5 295.3L806.8 279.7L772.5 270.7Z" fill="#1e579b" stroke="#1e579b"></path><path d="M831.8 406.8L813.5 337.8L761.3 389.8Z" fill="#5ab9f3" stroke="#5ab9f3"></path><path d="M806.5 295.3L900 261.2L806.8 279.7Z" fill="#2465a8" stroke="#2465a8"></path><path d="M821.5 460.4L718 494.9L736.3 519.9Z" fill="#2465a8" stroke="#2465a8"></path><path d="M0 537.5L75.5 553.5L102.3 482.9Z" fill="#194a8e" stroke="#194a8e"></path><path d="M109.5 540.9L75.5 553.5L144.8 592.5Z" fill="#194a8e" stroke="#194a8e"></path><path d="M226 0L171.8 13.5L190 38.5Z" fill="#459cdb" stroke="#459cdb"></path><path d="M40.3 83.5L62.5 161.6L109.5 130.1Z" fill="#3380c2" stroke="#3380c2"></path><path d="M0 257.7L10.3 300.7L68.3 230.2Z" fill="#143d81" stroke="#143d81"></path><path d="M49.3 424.4L0 462.9L102.3 482.9Z" fill="#2465a8" stroke="#2465a8"></path><path d="M752.5 88.1L722 70.5L692.3 142.6Z" fill="#3c8ecf" stroke="#3c8ecf"></path><path d="M724 0L644.8 0L681.3 47.5Z" fill="#194a8e" stroke="#194a8e"></path><path d="M681.3 47.5L644.8 0L582.8 35.5Z" fill="#5ab9f3" stroke="#5ab9f3"></path><path d="M0 257.7L0 310.3L10.3 300.7Z" fill="#143d81" stroke="#143d81"></path><path d="M10.3 300.7L0 310.3L59.3 355.8Z" fill="#459cdb" stroke="#459cdb"></path><path d="M806.8 279.7L800.8 191.2L780.5 202.6Z" fill="#1e579b" stroke="#1e579b"></path><path d="M806.8 157.6L752.5 88.1L692.3 142.6Z" fill="#3c8ecf" stroke="#3c8ecf"></path><path d="M806.8 157.6L900 148.1L844.8 113.1Z" fill="#3c8ecf" stroke="#3c8ecf"></path><path d="M0 310.3L0 389.4L59.3 355.8Z" fill="#459cdb" stroke="#459cdb"></path><path d="M707 600L758.3 570.5L736.3 519.9Z" fill="#2465a8" stroke="#2465a8"></path><path d="M758.3 570.5L783.5 532.9L736.3 519.9Z" fill="#3380c2" stroke="#3380c2"></path><path d="M0 256.2L0 257.7L68.3 230.2Z" fill="#459cdb" stroke="#459cdb"></path><path d="M707 600L740.3 600L758.3 570.5Z" fill="#194a8e" stroke="#194a8e"></path><path d="M758.3 570.5L797.8 600L783.5 532.9Z" fill="#3c8ecf" stroke="#3c8ecf"></path><path d="M0 173.6L0 256.2L68.3 230.2Z" fill="#194a8e" stroke="#194a8e"></path><path d="M806.8 157.6L692.3 142.6L780.5 202.6Z" fill="#2b72b5" stroke="#2b72b5"></path><path d="M722 70.5L724 0L681.3 47.5Z" fill="#65c8ff" stroke="#65c8ff"></path><path d="M0 389.4L0 416.8L49.3 424.4Z" fill="#3c8ecf" stroke="#3c8ecf"></path><path d="M226 0L155.8 0L171.8 13.5Z" fill="#194a8e" stroke="#194a8e"></path><path d="M171.8 13.5L136.5 0L134.5 87.5Z" fill="#143d81" stroke="#143d81"></path><path d="M62.5 161.6L0 173.6L68.3 230.2Z" fill="#5ab9f3" stroke="#5ab9f3"></path><path d="M821.5 460.4L761.3 389.8L714 453.4Z" fill="#5ab9f3" stroke="#5ab9f3"></path><path d="M813.5 337.8L900 353.3L806.5 295.3Z" fill="#5ab9f3" stroke="#5ab9f3"></path><path d="M783.5 532.9L821.5 460.4L736.3 519.9Z" fill="#2b72b5" stroke="#2b72b5"></path><path d="M40.3 83.5L109.5 130.1L134.5 87.5Z" fill="#143d81" stroke="#143d81"></path><path d="M0 416.8L0 462.9L49.3 424.4Z" fill="#194a8e" stroke="#194a8e"></path><path d="M806.8 157.6L800.8 191.2L900 212.6Z" fill="#143d81" stroke="#143d81"></path><path d="M800.8 191.2L806.8 157.6L780.5 202.6Z" fill="#2b72b5" stroke="#2b72b5"></path><path d="M155.8 0L136.5 0L171.8 13.5Z" fill="#4fabe7" stroke="#4fabe7"></path><path d="M740.3 600L763.5 595.5L758.3 570.5Z" fill="#3c8ecf" stroke="#3c8ecf"></path><path d="M853.8 508.9L867.8 432.4L821.5 460.4Z" fill="#65c8ff" stroke="#65c8ff"></path><path d="M816.5 89.5L768.3 73.1L752.5 88.1Z" fill="#3380c2" stroke="#3380c2"></path><path d="M752.5 88.1L768.3 73.1L722 70.5Z" fill="#194a8e" stroke="#194a8e"></path><path d="M0 129.1L0 173.6L30.3 145.6Z" fill="#143d81" stroke="#143d81"></path><path d="M30.3 145.6L0 173.6L62.5 161.6Z" fill="#3380c2" stroke="#3380c2"></path><path d="M740.3 600L777.5 600L763.5 595.5Z" fill="#4fabe7" stroke="#4fabe7"></path><path d="M763.5 595.5L777.5 600L758.3 570.5Z" fill="#3380c2" stroke="#3380c2"></path><path d="M50.3 0L40.3 83.5L134.5 87.5Z" fill="#5ab9f3" stroke="#5ab9f3"></path><path d="M0 537.5L26.3 580.5L75.5 553.5Z" fill="#3c8ecf" stroke="#3c8ecf"></path><path d="M75.5 553.5L26.3 580.5L144.8 592.5Z" fill="#5ab9f3" stroke="#5ab9f3"></path><path d="M735.3 0L724 0L722 70.5Z" fill="#2b72b5" stroke="#2b72b5"></path><path d="M0 462.9L0 537.5L102.3 482.9Z" fill="#2b72b5" stroke="#2b72b5"></path><path d="M9.3 93.1L0 129.1L30.3 145.6Z" fill="#1e579b" stroke="#1e579b"></path><path d="M821.5 460.4L867.8 432.4L831.8 406.8Z" fill="#143d81" stroke="#143d81"></path><path d="M831.8 406.8L900 353.3L813.5 337.8Z" fill="#3380c2" stroke="#3380c2"></path><path d="M853.8 508.9L821.5 460.4L783.5 532.9Z" fill="#1e579b" stroke="#1e579b"></path><path d="M808.8 0L735.3 0L768.3 73.1Z" fill="#5ab9f3" stroke="#5ab9f3"></path><path d="M768.3 73.1L735.3 0L722 70.5Z" fill="#194a8e" stroke="#194a8e"></path><path d="M777.5 600L797.8 600L758.3 570.5Z" fill="#194a8e" stroke="#194a8e"></path><path d="M0 55.5L9.3 93.1L40.3 83.5Z" fill="#1e579b" stroke="#1e579b"></path><path d="M40.3 83.5L9.3 93.1L30.3 145.6Z" fill="#2465a8" stroke="#2465a8"></path><path d="M844.8 113.1L816.5 89.5L806.8 157.6Z" fill="#143d81" stroke="#143d81"></path><path d="M806.8 157.6L816.5 89.5L752.5 88.1Z" fill="#1e579b" stroke="#1e579b"></path><path d="M797.8 600L853.8 508.9L783.5 532.9Z" fill="#1e579b" stroke="#1e579b"></path><path d="M0 600L5.3 600L26.3 580.5Z" fill="#1e579b" stroke="#1e579b"></path><path d="M26.3 580.5L5.3 600L148.8 600Z" fill="#194a8e" stroke="#194a8e"></path><path d="M900 245.7L800.8 191.2L806.8 279.7Z" fill="#194a8e" stroke="#194a8e"></path><path d="M816.5 89.5L808.8 0L768.3 73.1Z" fill="#5ab9f3" stroke="#5ab9f3"></path><path d="M900 392.8L831.8 406.8L867.8 432.4Z" fill="#4fabe7" stroke="#4fabe7"></path><path d="M900 392.8L900 353.3L831.8 406.8Z" fill="#3c8ecf" stroke="#3c8ecf"></path><path d="M0 537.5L0 600L26.3 580.5Z" fill="#2b72b5" stroke="#2b72b5"></path><path d="M900 446.4L900 392.8L867.8 432.4Z" fill="#65c8ff" stroke="#65c8ff"></path><path d="M900 353.3L900 261.2L806.5 295.3Z" fill="#5ab9f3" stroke="#5ab9f3"></path><path d="M136.5 0L50.3 0L134.5 87.5Z" fill="#65c8ff" stroke="#65c8ff"></path><path d="M900 261.2L900 245.7L806.8 279.7Z" fill="#3c8ecf" stroke="#3c8ecf"></path><path d="M50.3 0L0 55.5L40.3 83.5Z" fill="#1e579b" stroke="#1e579b"></path><path d="M9.3 93.1L0 55.5L0 129.1Z" fill="#2b72b5" stroke="#2b72b5"></path><path d="M888.8 499.5L867.8 432.4L853.8 508.9Z" fill="#194a8e" stroke="#194a8e"></path><path d="M888.8 499.5L900 446.4L867.8 432.4Z" fill="#143d81" stroke="#143d81"></path><path d="M900 245.7L900 212.6L800.8 191.2Z" fill="#143d81" stroke="#143d81"></path><path d="M900 515.5L888.8 499.5L853.8 508.9Z" fill="#1e579b" stroke="#1e579b"></path><path d="M900 148.1L859.8 95.5L844.8 113.1Z" fill="#459cdb" stroke="#459cdb"></path><path d="M844.8 113.1L859.8 95.5L816.5 89.5Z" fill="#194a8e" stroke="#194a8e"></path><path d="M900 525.9L900 515.5L853.8 508.9Z" fill="#194a8e" stroke="#194a8e"></path><path d="M888.8 499.5L900 515.5L900 446.4Z" fill="#194a8e" stroke="#194a8e"></path><path d="M825.5 0L808.8 0L816.5 89.5Z" fill="#65c8ff" stroke="#65c8ff"></path><path d="M900 212.6L900 148.1L806.8 157.6Z" fill="#2465a8" stroke="#2465a8"></path><path d="M859.8 95.5L825.5 0L816.5 89.5Z" fill="#2b72b5" stroke="#2b72b5"></path><path d="M900 600L900 525.9L853.8 508.9Z" fill="#2b72b5" stroke="#2b72b5"></path><path d="M900 28.5L825.5 0L859.8 95.5Z" fill="#5ab9f3" stroke="#5ab9f3"></path><path d="M50.3 0L0 0L0 55.5Z" fill="#194a8e" stroke="#194a8e"></path><path d="M797.8 600L900 600L853.8 508.9Z" fill="#65c8ff" stroke="#65c8ff"></path><path d="M900 148.1L900 28.5L859.8 95.5Z" fill="#143d81" stroke="#143d81"></path><path d="M900 28.5L900 0L825.5 0Z" fill="#2465a8" stroke="#2465a8"></path></g></svg>